<mxfile host="65bd71144e">
    <diagram id="bGxioTfk-44oSmbgWkS_" name="Page-1">
        <mxGraphModel dx="552" dy="400" grid="1" gridSize="10" guides="1" tooltips="1" connect="1" arrows="1" fold="1" page="1" pageScale="1" pageWidth="850" pageHeight="1100" background="none" math="0" shadow="0">
            <root>
                <mxCell id="0"/>
                <mxCell id="1" parent="0"/>
                <mxCell id="6ql6kzy7HbbvSzMATDnX-1" value="Actor" style="shape=umlActor;verticalLabelPosition=bottom;verticalAlign=top;html=1;" parent="1" vertex="1">
                    <mxGeometry x="188" y="130" width="30" height="60" as="geometry"/>
                </mxCell>
                <mxCell id="6ql6kzy7HbbvSzMATDnX-2" value="Actor" style="shape=umlActor;verticalLabelPosition=bottom;verticalAlign=top;html=1;" parent="1" vertex="1">
                    <mxGeometry x="493" y="130" width="30" height="60" as="geometry"/>
                </mxCell>
                <mxCell id="6ql6kzy7HbbvSzMATDnX-3" value="Use Case" style="ellipse;whiteSpace=wrap;html=1;" parent="1" vertex="1">
                    <mxGeometry x="285" y="130" width="140" height="70" as="geometry"/>
                </mxCell>
            </root>
        </mxGraphModel>
    </diagram>
</mxfile>